<svg width="30" height="27" viewBox="0 0 30 27" fill="none" xmlns="http://www.w3.org/2000/svg">
<path d="M16.5135 2.93995L16.5138 2.93972C19.2996 0.0652661 23.777 -0.369858 26.7638 2.17544C30.2205 5.12604 30.404 10.4284 27.3032 13.6283L27.3031 13.6284L15.9655 25.3352C15.9655 25.3352 15.9655 25.3352 15.9655 25.3352C15.4295 25.8882 14.5655 25.8882 14.0295 25.3352C14.0295 25.3352 14.0295 25.3352 14.0295 25.3352L2.69209 13.6287C-0.403286 10.4286 -0.219673 5.12579 3.23737 2.17519C6.22434 -0.369997 10.7072 0.0656487 13.4868 2.93936L13.4873 2.93995L14.6416 4.12938L15.0004 4.49913L15.3592 4.12938L16.5135 2.93995Z" fill="white" stroke="#343434"/>
</svg>
